PathFileType	4	(X/Y/Z)	C:\Users\Basilio\Documents\Thesis Gigler\squatting_fais\c3dfiles\040\SJ_pre3\markers_experimental.trc
DataRate	CameraRate	NumFrames	NumMarkers	Units	OrigDataRate	OrigDataStartFrame	OrigNumFrames
200.000000	200.000000	4	63	mm	200.000000	938	1251
Frame#	Time	FHD			LBHD			RBHD			C7			T10			CLAV			LSHO			LUUPA			LMUPA			LDUPA			LLEP			LMEP			LRAD			LUL			LRFIN			RSHO			RUPA1			RMUPA			RDUPA			RLEP			RMEP			RRAD			RUL			RUFIN			LASI			RASI			USACR			LSACR			RSACR			LTHI1			LTHI2			LTHI3			LTHI4			LLFC			LMFC			LTIB1			LTIB2			LTIB3			LTIB4			LLMAL			LMMAL			LHEE			LMT1			LMT2			LMT5			RTHI			RTHI2			RTHI3			RTHI4			RLFC			RMFC			RTIB1			RTIB2			RTIB3			RTIB4			RLMAL			RMMAL			RHEE			RMT1			RMT2			RMT5			*61			*62			
		X1	Y1	Z1	X2	Y2	Z2	X3	Y3	Z3	X4	Y4	Z4	X5	Y5	Z5	X6	Y6	Z6	X7	Y7	Z7	X8	Y8	Z8	X9	Y9	Z9	X10	Y10	Z10	X11	Y11	Z11	X12	Y12	Z12	X13	Y13	Z13	X14	Y14	Z14	X15	Y15	Z15	X16	Y16	Z16	X17	Y17	Z17	X18	Y18	Z18	X19	Y19	Z19	X20	Y20	Z20	X21	Y21	Z21	X22	Y22	Z22	X23	Y23	Z23	X24	Y24	Z24	X25	Y25	Z25	X26	Y26	Z26	X27	Y27	Z27	X28	Y28	Z28	X29	Y29	Z29	X30	Y30	Z30	X31	Y31	Z31	X32	Y32	Z32	X33	Y33	Z33	X34	Y34	Z34	X35	Y35	Z35	X36	Y36	Z36	X37	Y37	Z37	X38	Y38	Z38	X39	Y39	Z39	X40	Y40	Z40	X41	Y41	Z41	X42	Y42	Z42	X43	Y43	Z43	X44	Y44	Z44	X45	Y45	Z45	X46	Y46	Z46	X47	Y47	Z47	X48	Y48	Z48	X49	Y49	Z49	X50	Y50	Z50	X51	Y51	Z51	X52	Y52	Z52	X53	Y53	Z53	X54	Y54	Z54	X55	Y55	Z55	X56	Y56	Z56	X57	Y57	Z57	X58	Y58	Z58	X59	Y59	Z59	X60	Y60	Z60	X61	Y61	Z61	X62	Y62	Z62	X63	Y63	Z63	

939	4.69	-20.55043411254883	1034.838134765625	-899.347839355469	-148.2876434326172	984.5150146484377	-934.6359863281252	-196.6992187500001	947.6445922851565	-800.4478759765627	-215.2462463378907	884.3416137695315	-863.0106201171877	-446.1146545410157	679.9336547851564	-885.6025390625002	-142.1973571777344	745.5456542968751	-858.8689575195315	-122.5641784667969	806.5928955078127	-1027.178344726563	-219.2845306396485	744.1058349609376	-1199.142211914063	-243.7833099365235	701.9154663085939	-1194.589599609375	-262.6175842285157	719.3555908203126	-1248.601440429688	-310.2944641113282	701.9575805664064	-1295.68701171875	-361.3617858886719	755.2965698242189	-1276.057495117188	-517.5242919921876	575.9942016601564	-1122.127075195313	-484.7881469726564	517.5783691406251	-1153.662719726563	-476.4763183593751	568.5442504882814	-1067.18408203125	-157.9186248779297	792.8968505859377	-690.4624633789064	-289.8368835449219	791.2634277343752	-539.8917236328126	-307.9427490234376	745.1485595703126	-531.5791015625001	-339.1444702148438	778.0386352539065	-491.301483154297	-393.6607971191407	744.0670166015626	-452.7687072753907	-453.9687805175782	785.2405395507815	-500.146209716797	-480.6420898437501	572.8514404296876	-665.0922241210939	-468.9830322265626	516.3520507812501	-614.6311645507814	-428.8266601562501	548.8159790039064	-714.6055908203126	-406.3940734863282	478.6248168945314	-985.6453857421877	-428.539520263672	453.7349243164064	-781.9280395507815	-567.5900878906251	571.0724487304689	-890.1262207031252	-588.0169677734376	548.1594238281251	-920.522399902344	-596.1804809570314	547.6959838867189	-866.3635864257815	-380.3547668457032	404.0261230468751	-1137.741821289063	-304.1866455078126	439.7543334960939	-1158.323608398438	-297.2998962402344	483.8378906250001	-1143.086303710938	-256.7625122070313	412.1609802246095	-1174.99072265625	-144.7943267822266	422.6859130859376	-1201.526489257813	-108.1281356811524	359.0981445312501	-1084.157348632813	-201.9358825683594	230.0502014160157	-1186.037475585938	-288.2677001953126	250.1293029785157	-1205.767944335938	-256.8742675781251	216.4418334960938	-1201.580322265625	-293.1528015136719	144.733627319336	-1176.833740234375	-398.5647583007814	104.4536514282227	-1177.130126953125	-345.6801757812501	94.59714508056642	-1105.990234375	-460.0660095214845	47.53571701049805	-1131.525390625	-240.5641632080079	54.6625442504883	-1173.446044921875	-255.3666076660157	53.47206497192384	-1218.5732421875	-314.5810852050782	33.30464553833009	-1254.105590820313	-394.3399047851564	424.6476440429689	-639.0234985351564	-335.1145629882813	448.389373779297	-619.8088989257814	-322.1855773925782	478.1818847656251	-630.9134521484376	-273.0452880859376	402.0083923339845	-585.9188842773439	-188.8938446044922	387.0059204101564	-556.4125366210939	-129.8129119873047	351.9147033691407	-683.7420654296876	-237.8027496337891	229.694320678711	-589.4207153320314	-346.6225585937501	229.7053222656251	-604.6015014648439	-315.2765502929688	194.9966583251954	-600.3576049804689	-326.4799804687501	147.9301300048828	-634.2341308593751	-441.6990661621095	103.675277709961	-648.4060058593751	-390.5846557617189	93.09933471679689	-720.6088867187501	-495.8763122558595	51.96177291870119	-715.0460205078126	-290.1811523437501	53.43464660644533	-625.3931884765626	-309.2264709472657	55.95895004272462	-590.3803100585939	-369.1223449707032	36.64839935302735	-556.7902221679689	nan	nan	nan	nan	nan	nan	
940	4.695	-22.16503524780274	1039.00390625	-900.3359375000002	-149.6957702636719	988.427185058594	-935.5522460937502	-197.8784332275391	951.3055419921877	-801.3504028320315	-216.1989440917969	887.5277099609377	-863.7991943359377	-446.4494934082032	682.7670898437501	-886.119812011719	-142.6992950439453	749.3547363281251	-859.7114257812502	-123.3673400878907	810.5262451171877	-1028.008544921875	-219.9185028076172	747.4405517578126	-1199.92578125	-244.1348571777344	704.7731323242189	-1195.095336914063	-263.2455749511719	722.3269042968751	-1249.119018554688	-310.8154907226563	704.7691650390626	-1296.13916015625	-362.3122558593751	757.8189697265626	-1276.546630859375	-518.3320312500001	578.8129272460939	-1122.78955078125	-484.6873474121095	519.8991088867189	-1154.152221679688	-477.4383544921876	571.0483398437501	-1067.9111328125	-158.7076416015625	796.640563964844	-691.0205688476564	-290.6893310546876	794.9848632812502	-540.4499511718751	-308.5698547363282	748.5401611328126	-532.0179443359376	-340.0889282226563	781.2693481445315	-492.0196228027345	-394.0071411132814	747.1449584960939	-453.2175292968751	-454.8838806152345	788.509704589844	-500.6114807128907	-480.799530029297	575.7713012695314	-665.6213989257814	-468.9106445312501	519.1383666992189	-615.0401000976564	-429.1472167968751	551.6696777343751	-715.0826416015626	-408.263153076172	476.9666137695314	-985.3386230468752	-431.0786132812501	453.4225463867189	-781.6404418945315	-567.3148193359376	573.0514526367189	-890.5884399414065	-587.9653320312501	550.9356689453126	-920.8616333007815	-596.4201049804689	550.5265502929689	-866.8179321289065	-380.7159423828126	405.7208557128907	-1137.992797851563	-304.3232421875001	441.425018310547	-1158.951293945313	-297.3373107910157	484.9016723632814	-1143.719848632813	-256.9050903320313	412.9292297363282	-1175.229248046875	-145.111328125	423.005096435547	-1201.939575195313	-108.560531616211	359.7187500000001	-1084.271240234375	-202.2916412353516	230.5039062500001	-1186.4248046875	-288.5266418457032	250.2011871337891	-1206.000244140625	-257.1532287597657	216.6059112548829	-1201.769653320313	-293.2870788574219	144.8641662597657	-1176.8671875	-398.5289306640626	104.3591079711914	-1177.303955078125	-345.7619628906251	94.62889862060548	-1106.0751953125	-460.1059570312501	47.4737777709961	-1131.577514648438	-240.5428161621094	54.67058563232423	-1173.528198242188	-255.7107696533204	52.99862670898439	-1218.761840820313	-314.5272216796876	33.25809860229493	-1254.137084960938	-394.2068481445314	426.4414367675782	-639.2893066406251	-334.5919189453126	449.625701904297	-619.5561523437501	-321.9081726074219	479.2181091308595	-631.0989990234376	-273.1260681152344	402.7528381347657	-586.6772460937501	-188.9979553222657	387.8164062500001	-556.8436889648439	-130.6866455078125	352.4408874511719	-684.1655273437501	-238.3777313232422	229.3924255371094	-590.2075805664064	-346.6872558593751	229.9616088867188	-604.8760986328126	-315.2613830566407	195.1332397460938	-600.6065673828126	-326.4944458007813	148.2029571533203	-634.3906250000001	-441.6785888671876	103.7121047973633	-648.4249267578126	-390.5645751953126	93.08711242675783	-720.6510620117189	-495.8792114257814	51.94250106811525	-715.0411376953126	-290.1558532714844	53.40308380126955	-625.4158325195314	-309.1902465820313	55.96439361572267	-590.3992919921876	-369.0878906250001	36.6463966369629	-556.7760009765626	nan	nan	nan	nan	nan	nan	
941	4.7	-23.88531112670899	1043.002197265625	-901.0546875000002	-150.8699798583985	992.3946533203127	-936.4201660156252	-198.8292236328126	954.9815063476565	-802.173278808594	-217.0139923095704	891.0660400390627	-864.5803833007815	-446.702850341797	685.6138305664064	-886.684753417969	-143.5652160644532	753.3889770507814	-860.2489013671877	-124.4241027832032	814.297790527344	-1028.632690429688	-220.5029907226563	750.8283081054689	-1200.445678710938	-244.8581542968751	708.1143798828126	-1195.8251953125	-263.7460021972657	725.5930175781251	-1249.864868164063	-311.4231567382813	707.8983154296876	-1296.707397460938	-363.0783996582032	760.5751953125001	-1276.967041015625	-518.4328002929689	581.1704101562501	-1123.2822265625	-484.7745361328126	522.5305175781251	-1154.72314453125	-477.4848022460939	573.4679565429689	-1068.424560546875	-159.4098052978516	800.9924926757815	-691.9104003906251	-291.2431335449219	798.6650390625002	-541.1771850585939	-309.2274780273438	752.4434204101564	-532.5142211914064	-340.5756835937501	785.1945800781252	-492.5020751953126	-394.4913024902345	750.7700195312501	-453.8967285156251	-455.5100708007814	791.7604980468752	-501.3179321289064	-480.8979492187501	578.8468627929689	-666.0668945312501	-469.0115661621095	522.0815429687501	-615.4188232421876	-429.2682495117189	554.5985107421876	-715.6465454101564	-408.8384094238282	480.6429443359376	-986.238220214844	-431.3042602539064	455.9403076171876	-782.749938964844	-567.4219970703126	576.2301025390626	-890.9246215820315	-588.2614135742189	554.0651245117189	-921.3115844726565	-596.5363159179689	553.5230712890626	-867.2507324218752	-380.8759155273438	407.1359863281251	-1138.285278320313	-305.6577758789063	442.6495971679689	-1159.539916992188	-297.4030151367188	486.334197998047	-1144.347534179688	-257.1494445800782	414.2036437988282	-1175.535522460938	-145.2900390625	423.3003845214845	-1202.23046875	-108.9775314331055	360.3899536132813	-1084.416870117188	-202.3157806396485	230.6427764892579	-1186.698974609375	-288.8315124511719	250.2843322753907	-1206.23779296875	-257.3169250488282	216.7238311767579	-1201.900268554688	-293.4177856445313	145.0064239501953	-1176.983276367188	-398.5649414062501	104.3501586914063	-1177.442993164063	-345.8056335449219	94.64957427978517	-1106.183959960938	-460.1007385253907	47.49573135375977	-1131.623657226563	-240.4279479980469	54.59790039062501	-1173.544921875	-255.3648376464844	53.52850723266603	-1218.590087890625	-314.5278930664063	33.22971343994141	-1254.145141601563	-394.3852539062501	428.0369567871095	-639.5132446289064	-334.6398010253907	451.0598144531251	-619.7772216796876	-322.0994262695313	480.5560913085939	-631.0345458984376	-273.4300231933594	403.7677001953126	-587.0911254882814	-189.1488647460938	388.3377075195314	-557.2356567382814	-131.5643768310547	353.1849060058594	-684.5302124023439	-238.1213378906251	230.5063018798829	-589.9674682617189	-346.8200683593751	230.1955871582032	-605.2445068359376	-315.3493347167969	195.4543457031251	-601.0085449218751	-326.5515441894532	148.1861114501953	-634.4995727539064	-441.8145141601564	103.8254318237305	-648.4737548828126	-390.524139404297	93.08494567871095	-720.6972045898439	-495.8982238769532	51.96650314331056	-715.0360717773439	-290.1458740234376	53.4646339416504	-625.3862915039064	-309.1904907226563	56.0239715576172	-590.4129028320314	-369.0700988769532	36.66711807250977	-556.7730102539064	nan	nan	nan	nan	nan	nan	
942	4.705	-25.0941562652588	1047.686889648438	-901.8145141601565	-152.5623779296875	996.5657348632815	-937.3936767578127	-200.439193725586	959.3050537109377	-803.1560058593752	-218.222396850586	895.0451660156252	-865.4473876953127	-447.0741271972657	688.7590332031251	-887.1524047851565	-144.0519409179688	757.2964477539064	-860.8757324218752	-125.1347351074219	817.986999511719	-1029.380615234375	-221.2834777832032	754.5236816406251	-1201.13623046875	-245.2528228759766	711.7038574218751	-1196.618408203125	-264.4197998046876	729.0029296875001	-1250.439575195313	-311.8127746582032	711.0480346679689	-1297.387451171875	-363.7395629882813	763.6918945312501	-1277.598754882813	-518.6586914062501	583.7969360351564	-1123.790893554688	-484.7943115234376	525.2145385742189	-1155.38916015625	-477.8124389648439	576.1241455078126	-1069.021484375	-160.309799194336	805.3178710937502	-692.4132690429689	-292.0505981445313	802.7546997070315	-541.8937988281251	-309.6297302246094	756.2927246093751	-533.1390380859376	-341.2901611328126	789.250671386719	-493.1083374023439	-395.0647888183595	754.6885375976564	-454.7835693359376	-455.4781799316407	794.9863891601565	-502.0778808593751	-481.1009521484376	582.1109008789064	-666.5480346679689	-469.1618652343751	525.3933105468751	-615.7396240234376	-429.1776123046876	557.8781127929689	-716.1697998046876	-408.1426696777345	488.3273010253907	-987.582702636719	-428.485809326172	463.1969604492189	-784.022399902344	-568.1364135742189	579.8860473632814	-891.3443603515627	-588.4971313476564	557.4895629882814	-921.7024536132815	-596.4769287109376	556.6092529296876	-867.5390625000002	-381.2577819824219	409.0536193847657	-1138.464721679688	-305.9177856445313	444.0670776367189	-1160.021850585938	-297.4117126464844	487.8880004882814	-1144.897338867188	-257.4209289550782	415.343719482422	-1175.527099609375	-145.568099975586	423.5989990234376	-1202.591674804688	-109.7592544555664	361.0664978027344	-1084.70703125	-203.0469207763672	231.1951141357422	-1186.970825195313	-289.0816955566407	250.3844451904297	-1206.46533203125	-257.4667663574219	216.8343353271485	-1202.012939453125	-293.6607666015626	145.1739196777344	-1177.099731445313	-398.5951232910157	104.3843307495117	-1177.51708984375	-345.8966979980469	94.72512817382814	-1106.309692382813	-460.1987304687501	47.43383789062501	-1131.705932617188	-240.494613647461	54.66152572631837	-1173.54345703125	-255.4488372802735	53.40568161010744	-1218.64013671875	-314.5198364257813	33.19685745239259	-1254.1123046875	-394.7307434082032	429.3678283691407	-639.8545532226564	-334.4801330566407	452.394256591797	-619.9661865234376	-321.5819091796876	481.8820800781251	-631.0832519531251	-273.0872497558594	404.7317504882814	-587.7166748046876	-189.4517364501953	389.0249328613282	-557.7398071289064	-131.6602172851563	353.9375915527344	-685.2072753906251	-238.4143524169922	230.7373046875001	-590.4652709960939	-347.1367492675782	230.5494537353516	-605.5709838867189	-315.5171508789063	195.9519195556641	-601.1187744140626	-326.6977844238282	148.4634857177735	-634.5490722656251	-441.8631286621095	103.8408889770508	-648.5399169921876	-390.6597595214845	93.06781005859376	-720.6901245117189	-496.0740661621095	51.86641311645509	-715.0610961914064	-290.1780700683594	53.4805030822754	-625.4237060546876	-309.2404785156251	56.0171241760254	-590.4721069335939	-369.0610046386719	36.78768539428712	-556.7864379882814	nan	nan	nan	nan	nan	nan	
